<svg width="40" height="41" viewBox="0 0 40 41" fill="none" xmlns="http://www.w3.org/2000/svg">
<path fill-rule="evenodd" clip-rule="evenodd" d="M26.187 28.8406C26.6751 29.3287 27.4666 29.3287 27.9547 28.8406C28.4429 28.3524 28.4429 27.561 27.9547 27.0728L21.7676 20.8857L27.9547 14.6985C28.4429 14.2104 28.4429 13.4189 27.9547 12.9308C27.4666 12.4426 26.6751 12.4426 26.187 12.9308L19.9998 19.1179L13.8126 12.9307C13.3245 12.4425 12.533 12.4425 12.0448 12.9307C11.5567 13.4188 11.5567 14.2103 12.0448 14.6985L18.2321 20.8857L12.0448 27.0729C11.5567 27.5611 11.5567 28.3525 12.0448 28.8407C12.533 29.3288 13.3244 29.3288 13.8126 28.8407L19.9998 22.6534L26.187 28.8406Z" fill="white"/>
</svg>
