<svg width="17" height="16" viewBox="0 0 17 16" fill="none" xmlns="http://www.w3.org/2000/svg">
<path fill-rule="evenodd" clip-rule="evenodd" d="M10.1001 1.63337L11.375 3.33334L5.62508 3.33334L6.90005 1.63337C7.06574 1.41246 7.02097 1.09906 6.80005 0.933373C6.57914 0.767688 6.26574 0.812459 6.10005 1.03337L4.37351 3.33544C3.1538 3.38506 2.17601 4.31139 1.90702 5.50001H15.0931C14.8241 4.31139 13.8463 3.38507 12.6266 3.33544L10.9001 1.03337C10.7344 0.812459 10.421 0.767687 10.2001 0.933373C9.97914 1.09906 9.93437 1.41246 10.1001 1.63337ZM15.1477 6.50001H1.85242C1.86133 6.57935 1.87341 6.65907 1.88879 6.73901L2.97874 12.4057C3.23196 13.7222 4.31299 14.6667 5.56656 14.6667H11.4335C12.6871 14.6667 13.7681 13.7222 14.0214 12.4057L15.1113 6.739C15.1267 6.65906 15.1388 6.57935 15.1477 6.50001ZM5.33338 9.33334C5.33338 9.0572 5.55723 8.83334 5.83338 8.83334H11.1667C11.4429 8.83334 11.6667 9.0572 11.6667 9.33334C11.6667 9.60948 11.4429 9.83334 11.1667 9.83334H5.83338C5.55723 9.83334 5.33338 9.60948 5.33338 9.33334ZM6.50004 11.5C6.2239 11.5 6.00004 11.7239 6.00004 12C6.00004 12.2762 6.2239 12.5 6.50004 12.5H10.5C10.7762 12.5 11 12.2762 11 12C11 11.7239 10.7762 11.5 10.5 11.5H6.50004Z" fill="white"/>
</svg>
